%TF.GenerationSoftware,KiCad,Pcbnew,(5.1.10)-1*%
%TF.CreationDate,2021-10-20T01:45:52-07:00*%
%TF.ProjectId,blinky,626c696e-6b79-42e6-9b69-6361645f7063,rev?*%
%TF.SameCoordinates,Original*%
%TF.FileFunction,Legend,Top*%
%TF.FilePolarity,Positive*%
%FSLAX46Y46*%
G04 Gerber Fmt 4.6, Leading zero omitted, Abs format (unit mm)*
G04 Created by KiCad (PCBNEW (5.1.10)-1) date 2021-10-20 01:45:52*
%MOMM*%
%LPD*%
G01*
G04 APERTURE LIST*
%ADD10C,0.150000*%
%ADD11C,0.120000*%
G04 APERTURE END LIST*
D10*
X133857142Y-115742857D02*
X133857142Y-114542857D01*
X134257142Y-115400000D01*
X134657142Y-114542857D01*
X134657142Y-115742857D01*
X135742857Y-115742857D02*
X135742857Y-115114285D01*
X135685714Y-115000000D01*
X135571428Y-114942857D01*
X135342857Y-114942857D01*
X135228571Y-115000000D01*
X135742857Y-115685714D02*
X135628571Y-115742857D01*
X135342857Y-115742857D01*
X135228571Y-115685714D01*
X135171428Y-115571428D01*
X135171428Y-115457142D01*
X135228571Y-115342857D01*
X135342857Y-115285714D01*
X135628571Y-115285714D01*
X135742857Y-115228571D01*
X136828571Y-115742857D02*
X136828571Y-114542857D01*
X136828571Y-115685714D02*
X136714285Y-115742857D01*
X136485714Y-115742857D01*
X136371428Y-115685714D01*
X136314285Y-115628571D01*
X136257142Y-115514285D01*
X136257142Y-115171428D01*
X136314285Y-115057142D01*
X136371428Y-115000000D01*
X136485714Y-114942857D01*
X136714285Y-114942857D01*
X136828571Y-115000000D01*
X137857142Y-115685714D02*
X137742857Y-115742857D01*
X137514285Y-115742857D01*
X137400000Y-115685714D01*
X137342857Y-115571428D01*
X137342857Y-115114285D01*
X137400000Y-115000000D01*
X137514285Y-114942857D01*
X137742857Y-114942857D01*
X137857142Y-115000000D01*
X137914285Y-115114285D01*
X137914285Y-115228571D01*
X137342857Y-115342857D01*
X139342857Y-115742857D02*
X139342857Y-114542857D01*
X139342857Y-115000000D02*
X139457142Y-114942857D01*
X139685714Y-114942857D01*
X139800000Y-115000000D01*
X139857142Y-115057142D01*
X139914285Y-115171428D01*
X139914285Y-115514285D01*
X139857142Y-115628571D01*
X139800000Y-115685714D01*
X139685714Y-115742857D01*
X139457142Y-115742857D01*
X139342857Y-115685714D01*
X140314285Y-114942857D02*
X140600000Y-115742857D01*
X140885714Y-114942857D02*
X140600000Y-115742857D01*
X140485714Y-116028571D01*
X140428571Y-116085714D01*
X140314285Y-116142857D01*
X142257142Y-115114285D02*
X142657142Y-115114285D01*
X142828571Y-115742857D02*
X142257142Y-115742857D01*
X142257142Y-114542857D01*
X142828571Y-114542857D01*
X143342857Y-115742857D02*
X143342857Y-114942857D01*
X143342857Y-115171428D02*
X143400000Y-115057142D01*
X143457142Y-115000000D01*
X143571428Y-114942857D01*
X143685714Y-114942857D01*
X144085714Y-115742857D02*
X144085714Y-114942857D01*
X144085714Y-114542857D02*
X144028571Y-114600000D01*
X144085714Y-114657142D01*
X144142857Y-114600000D01*
X144085714Y-114542857D01*
X144085714Y-114657142D01*
X145171428Y-115685714D02*
X145057142Y-115742857D01*
X144828571Y-115742857D01*
X144714285Y-115685714D01*
X144657142Y-115628571D01*
X144600000Y-115514285D01*
X144600000Y-115171428D01*
X144657142Y-115057142D01*
X144714285Y-115000000D01*
X144828571Y-114942857D01*
X145057142Y-114942857D01*
X145171428Y-115000000D01*
X146600000Y-115742857D02*
X146600000Y-114542857D01*
X146600000Y-115114285D02*
X147285714Y-115114285D01*
X147285714Y-115742857D02*
X147285714Y-114542857D01*
X148371428Y-115742857D02*
X148371428Y-115114285D01*
X148314285Y-115000000D01*
X148200000Y-114942857D01*
X147971428Y-114942857D01*
X147857142Y-115000000D01*
X148371428Y-115685714D02*
X148257142Y-115742857D01*
X147971428Y-115742857D01*
X147857142Y-115685714D01*
X147800000Y-115571428D01*
X147800000Y-115457142D01*
X147857142Y-115342857D01*
X147971428Y-115285714D01*
X148257142Y-115285714D01*
X148371428Y-115228571D01*
X148942857Y-114942857D02*
X148942857Y-115742857D01*
X148942857Y-115057142D02*
X149000000Y-115000000D01*
X149114285Y-114942857D01*
X149285714Y-114942857D01*
X149400000Y-115000000D01*
X149457142Y-115114285D01*
X149457142Y-115742857D01*
X150542857Y-114942857D02*
X150542857Y-115914285D01*
X150485714Y-116028571D01*
X150428571Y-116085714D01*
X150314285Y-116142857D01*
X150142857Y-116142857D01*
X150028571Y-116085714D01*
X150542857Y-115685714D02*
X150428571Y-115742857D01*
X150200000Y-115742857D01*
X150085714Y-115685714D01*
X150028571Y-115628571D01*
X149971428Y-115514285D01*
X149971428Y-115171428D01*
X150028571Y-115057142D01*
X150085714Y-115000000D01*
X150200000Y-114942857D01*
X150428571Y-114942857D01*
X150542857Y-115000000D01*
X133257142Y-92100000D02*
X133142857Y-92042857D01*
X132971428Y-92042857D01*
X132799999Y-92100000D01*
X132685714Y-92214285D01*
X132628571Y-92328571D01*
X132571428Y-92557142D01*
X132571428Y-92728571D01*
X132628571Y-92957142D01*
X132685714Y-93071428D01*
X132799999Y-93185714D01*
X132971428Y-93242857D01*
X133085714Y-93242857D01*
X133257142Y-93185714D01*
X133314285Y-93128571D01*
X133314285Y-92728571D01*
X133085714Y-92728571D01*
X134285714Y-93185714D02*
X134171428Y-93242857D01*
X133942857Y-93242857D01*
X133828571Y-93185714D01*
X133771428Y-93071428D01*
X133771428Y-92614285D01*
X133828571Y-92500000D01*
X133942857Y-92442857D01*
X134171428Y-92442857D01*
X134285714Y-92500000D01*
X134342857Y-92614285D01*
X134342857Y-92728571D01*
X133771428Y-92842857D01*
X134685714Y-92442857D02*
X135142857Y-92442857D01*
X134857142Y-92042857D02*
X134857142Y-93071428D01*
X134914285Y-93185714D01*
X135028571Y-93242857D01*
X135142857Y-93242857D01*
X135371428Y-92442857D02*
X135828571Y-92442857D01*
X135542857Y-92042857D02*
X135542857Y-93071428D01*
X135600000Y-93185714D01*
X135714285Y-93242857D01*
X135828571Y-93242857D01*
X136228571Y-93242857D02*
X136228571Y-92442857D01*
X136228571Y-92042857D02*
X136171428Y-92100000D01*
X136228571Y-92157142D01*
X136285714Y-92100000D01*
X136228571Y-92042857D01*
X136228571Y-92157142D01*
X136800000Y-92442857D02*
X136800000Y-93242857D01*
X136800000Y-92557142D02*
X136857142Y-92500000D01*
X136971428Y-92442857D01*
X137142857Y-92442857D01*
X137257142Y-92500000D01*
X137314285Y-92614285D01*
X137314285Y-93242857D01*
X138400000Y-92442857D02*
X138400000Y-93414285D01*
X138342857Y-93528571D01*
X138285714Y-93585714D01*
X138171428Y-93642857D01*
X138000000Y-93642857D01*
X137885714Y-93585714D01*
X138400000Y-93185714D02*
X138285714Y-93242857D01*
X138057142Y-93242857D01*
X137942857Y-93185714D01*
X137885714Y-93128571D01*
X137828571Y-93014285D01*
X137828571Y-92671428D01*
X137885714Y-92557142D01*
X137942857Y-92500000D01*
X138057142Y-92442857D01*
X138285714Y-92442857D01*
X138400000Y-92500000D01*
X139714285Y-92042857D02*
X140400000Y-92042857D01*
X140057142Y-93242857D02*
X140057142Y-92042857D01*
X140971428Y-93242857D02*
X140857142Y-93185714D01*
X140800000Y-93128571D01*
X140742857Y-93014285D01*
X140742857Y-92671428D01*
X140800000Y-92557142D01*
X140857142Y-92500000D01*
X140971428Y-92442857D01*
X141142857Y-92442857D01*
X141257142Y-92500000D01*
X141314285Y-92557142D01*
X141371428Y-92671428D01*
X141371428Y-93014285D01*
X141314285Y-93128571D01*
X141257142Y-93185714D01*
X141142857Y-93242857D01*
X140971428Y-93242857D01*
X143200000Y-92614285D02*
X143371428Y-92671428D01*
X143428571Y-92728571D01*
X143485714Y-92842857D01*
X143485714Y-93014285D01*
X143428571Y-93128571D01*
X143371428Y-93185714D01*
X143257142Y-93242857D01*
X142800000Y-93242857D01*
X142800000Y-92042857D01*
X143200000Y-92042857D01*
X143314285Y-92100000D01*
X143371428Y-92157142D01*
X143428571Y-92271428D01*
X143428571Y-92385714D01*
X143371428Y-92500000D01*
X143314285Y-92557142D01*
X143200000Y-92614285D01*
X142800000Y-92614285D01*
X144171428Y-93242857D02*
X144057142Y-93185714D01*
X144000000Y-93071428D01*
X144000000Y-92042857D01*
X144628571Y-93242857D02*
X144628571Y-92442857D01*
X144628571Y-92042857D02*
X144571428Y-92100000D01*
X144628571Y-92157142D01*
X144685714Y-92100000D01*
X144628571Y-92042857D01*
X144628571Y-92157142D01*
X145200000Y-92442857D02*
X145200000Y-93242857D01*
X145200000Y-92557142D02*
X145257142Y-92500000D01*
X145371428Y-92442857D01*
X145542857Y-92442857D01*
X145657142Y-92500000D01*
X145714285Y-92614285D01*
X145714285Y-93242857D01*
X146285714Y-93242857D02*
X146285714Y-92042857D01*
X146400000Y-92785714D02*
X146742857Y-93242857D01*
X146742857Y-92442857D02*
X146285714Y-92900000D01*
X147142857Y-92442857D02*
X147428571Y-93242857D01*
X147714285Y-92442857D02*
X147428571Y-93242857D01*
X147314285Y-93528571D01*
X147257142Y-93585714D01*
X147142857Y-93642857D01*
X149657142Y-92042857D02*
X149085714Y-92042857D01*
X149028571Y-92614285D01*
X149085714Y-92557142D01*
X149200000Y-92500000D01*
X149485714Y-92500000D01*
X149600000Y-92557142D01*
X149657142Y-92614285D01*
X149714285Y-92728571D01*
X149714285Y-93014285D01*
X149657142Y-93128571D01*
X149600000Y-93185714D01*
X149485714Y-93242857D01*
X149200000Y-93242857D01*
X149085714Y-93185714D01*
X149028571Y-93128571D01*
X150228571Y-93128571D02*
X150285714Y-93185714D01*
X150228571Y-93242857D01*
X150171428Y-93185714D01*
X150228571Y-93128571D01*
X150228571Y-93242857D01*
X151028571Y-92042857D02*
X151142857Y-92042857D01*
X151257142Y-92100000D01*
X151314285Y-92157142D01*
X151371428Y-92271428D01*
X151428571Y-92500000D01*
X151428571Y-92785714D01*
X151371428Y-93014285D01*
X151314285Y-93128571D01*
X151257142Y-93185714D01*
X151142857Y-93242857D01*
X151028571Y-93242857D01*
X150914285Y-93185714D01*
X150857142Y-93128571D01*
X150800000Y-93014285D01*
X150742857Y-92785714D01*
X150742857Y-92500000D01*
X150800000Y-92271428D01*
X150857142Y-92157142D01*
X150914285Y-92100000D01*
X151028571Y-92042857D01*
D11*
%TO.C,U1*%
X142000000Y-101440000D02*
X138550000Y-101440000D01*
X142000000Y-101440000D02*
X143950000Y-101440000D01*
X142000000Y-106560000D02*
X140050000Y-106560000D01*
X142000000Y-106560000D02*
X143950000Y-106560000D01*
%TO.C,R3*%
X134265000Y-103772936D02*
X134265000Y-104227064D01*
X135735000Y-103772936D02*
X135735000Y-104227064D01*
%TO.C,R2*%
X148265000Y-105772936D02*
X148265000Y-106227064D01*
X149735000Y-105772936D02*
X149735000Y-106227064D01*
%TO.C,R1*%
X148265000Y-100772936D02*
X148265000Y-101227064D01*
X149735000Y-100772936D02*
X149735000Y-101227064D01*
%TO.C,D1*%
X135960000Y-110860000D02*
X135960000Y-108000000D01*
X134040000Y-110860000D02*
X135960000Y-110860000D01*
X134040000Y-108000000D02*
X134040000Y-110860000D01*
%TO.C,C1*%
X135735000Y-99261252D02*
X135735000Y-98738748D01*
X134265000Y-99261252D02*
X134265000Y-98738748D01*
%TO.C,U1*%
D10*
X141085714Y-99642857D02*
X141085714Y-100614285D01*
X141142857Y-100728571D01*
X141200000Y-100785714D01*
X141314285Y-100842857D01*
X141542857Y-100842857D01*
X141657142Y-100785714D01*
X141714285Y-100728571D01*
X141771428Y-100614285D01*
X141771428Y-99642857D01*
X142971428Y-100842857D02*
X142285714Y-100842857D01*
X142628571Y-100842857D02*
X142628571Y-99642857D01*
X142514285Y-99814285D01*
X142400000Y-99928571D01*
X142285714Y-99985714D01*
%TO.C,R3*%
X133442857Y-104200000D02*
X132871428Y-104600000D01*
X133442857Y-104885714D02*
X132242857Y-104885714D01*
X132242857Y-104428571D01*
X132300000Y-104314285D01*
X132357142Y-104257142D01*
X132471428Y-104200000D01*
X132642857Y-104200000D01*
X132757142Y-104257142D01*
X132814285Y-104314285D01*
X132871428Y-104428571D01*
X132871428Y-104885714D01*
X132242857Y-103800000D02*
X132242857Y-103057142D01*
X132700000Y-103457142D01*
X132700000Y-103285714D01*
X132757142Y-103171428D01*
X132814285Y-103114285D01*
X132928571Y-103057142D01*
X133214285Y-103057142D01*
X133328571Y-103114285D01*
X133385714Y-103171428D01*
X133442857Y-103285714D01*
X133442857Y-103628571D01*
X133385714Y-103742857D01*
X133328571Y-103800000D01*
%TO.C,R2*%
X151742857Y-106200000D02*
X151171428Y-106600000D01*
X151742857Y-106885714D02*
X150542857Y-106885714D01*
X150542857Y-106428571D01*
X150600000Y-106314285D01*
X150657142Y-106257142D01*
X150771428Y-106200000D01*
X150942857Y-106200000D01*
X151057142Y-106257142D01*
X151114285Y-106314285D01*
X151171428Y-106428571D01*
X151171428Y-106885714D01*
X150657142Y-105742857D02*
X150600000Y-105685714D01*
X150542857Y-105571428D01*
X150542857Y-105285714D01*
X150600000Y-105171428D01*
X150657142Y-105114285D01*
X150771428Y-105057142D01*
X150885714Y-105057142D01*
X151057142Y-105114285D01*
X151742857Y-105800000D01*
X151742857Y-105057142D01*
%TO.C,R1*%
X151742857Y-101200000D02*
X151171428Y-101600000D01*
X151742857Y-101885714D02*
X150542857Y-101885714D01*
X150542857Y-101428571D01*
X150600000Y-101314285D01*
X150657142Y-101257142D01*
X150771428Y-101200000D01*
X150942857Y-101200000D01*
X151057142Y-101257142D01*
X151114285Y-101314285D01*
X151171428Y-101428571D01*
X151171428Y-101885714D01*
X151742857Y-100057142D02*
X151742857Y-100742857D01*
X151742857Y-100400000D02*
X150542857Y-100400000D01*
X150714285Y-100514285D01*
X150828571Y-100628571D01*
X150885714Y-100742857D01*
%TO.C,D1*%
X133542857Y-109885714D02*
X132342857Y-109885714D01*
X132342857Y-109600000D01*
X132400000Y-109428571D01*
X132514285Y-109314285D01*
X132628571Y-109257142D01*
X132857142Y-109200000D01*
X133028571Y-109200000D01*
X133257142Y-109257142D01*
X133371428Y-109314285D01*
X133485714Y-109428571D01*
X133542857Y-109600000D01*
X133542857Y-109885714D01*
X133542857Y-108057142D02*
X133542857Y-108742857D01*
X133542857Y-108400000D02*
X132342857Y-108400000D01*
X132514285Y-108514285D01*
X132628571Y-108628571D01*
X132685714Y-108742857D01*
%TO.C,C1*%
X133228571Y-99200000D02*
X133285714Y-99257142D01*
X133342857Y-99428571D01*
X133342857Y-99542857D01*
X133285714Y-99714285D01*
X133171428Y-99828571D01*
X133057142Y-99885714D01*
X132828571Y-99942857D01*
X132657142Y-99942857D01*
X132428571Y-99885714D01*
X132314285Y-99828571D01*
X132200000Y-99714285D01*
X132142857Y-99542857D01*
X132142857Y-99428571D01*
X132200000Y-99257142D01*
X132257142Y-99200000D01*
X133342857Y-98057142D02*
X133342857Y-98742857D01*
X133342857Y-98400000D02*
X132142857Y-98400000D01*
X132314285Y-98514285D01*
X132428571Y-98628571D01*
X132485714Y-98742857D01*
%TD*%
M02*
